<svg xmlns="http://www.w3.org/2000/svg" version="1.1" xmlns:xlink="http://www.w3.org/1999/xlink" xmlnsSvg="http://svgjs.com/svgjs" width="1440" height="560" preserveAspectRatio="none" viewBox="0 0 1440 560"><g mask="url(&quot;#SvgjsMask1034&quot;)" fill="none"><path d="M584.048,150.172C617.959,149.566,644.239,124.562,661.606,95.43C679.508,65.399,691.182,29.155,674.509,-1.575C657.223,-33.436,620.287,-46.715,584.048,-47.517C546.104,-48.357,505.07,-38.769,486.378,-5.738C467.88,26.949,481.596,66.463,501.535,98.291C520.021,127.801,549.232,150.794,584.048,150.172" fill="rgba(28, 83, 142, 0.4)" class="triangle-float3"></path><path d="M129.14789085740267 355.8203387238519L197.23275292511988 371.5389676724592 186.76826531417225 261.5523600965797z" fill="rgba(28, 83, 142, 0.4)" class="triangle-float2"></path><path d="M-109.6 330.46 a119.66 119.66 0 1 0 239.32 0 a119.66 119.66 0 1 0 -239.32 0z" fill="rgba(28, 83, 142, 0.4)" class="triangle-float3"></path><path d="M1199.1051809001572 394.14216734506675L1229.5342708493843 482.514661373388 1346.8784669172526 392.68477943538664z" fill="rgba(28, 83, 142, 0.4)" class="triangle-float2"></path><path d="M276.762,268.464C315.42,268.072,339.238,230.811,358.048,197.036C376.168,164.5,390.014,127.595,373.918,94.012C355.732,56.067,318.839,27.2,276.762,27.435C235.011,27.668,199.887,57.617,181.468,95.087C165.043,128.502,174.633,166.085,192.568,198.715C211.383,232.946,237.703,268.86,276.762,268.464" fill="rgba(28, 83, 142, 0.4)" class="triangle-float1"></path><path d="M392.82396550290235-1.8134493939940413L323.14302893104536 118.87747306744666 443.83395139248603 188.55840963930368 513.5148879643431 67.86748717786298z" fill="rgba(28, 83, 142, 0.4)" class="triangle-float1"></path><path d="M190.73,516.772C227.282,516.501,259.907,496.988,279.708,466.263C301.544,432.382,314.057,390.197,295.296,354.521C275.456,316.793,233.354,296.594,190.73,297.061C148.916,297.519,109.791,319.901,90.056,356.768C71.302,391.801,78.278,433.965,99.44,467.598C119.168,498.953,153.686,517.046,190.73,516.772" fill="rgba(28, 83, 142, 0.4)" class="triangle-float2"></path><path d="M426.04369292765466 410.88138398444755L442.9908975244392 474.1292125859124 529.3890381282442 417.0844913900031z" fill="rgba(28, 83, 142, 0.4)" class="triangle-float2"></path><path d="M1119.47 361.64 a110.77 110.77 0 1 0 221.54 0 a110.77 110.77 0 1 0 -221.54 0z" fill="rgba(28, 83, 142, 0.4)" class="triangle-float1"></path><path d="M662.33 166.78 a116.79 116.79 0 1 0 233.58 0 a116.79 116.79 0 1 0 -233.58 0z" fill="rgba(28, 83, 142, 0.4)" class="triangle-float3"></path><path d="M186.72 546.91 a154.56 154.56 0 1 0 309.12 0 a154.56 154.56 0 1 0 -309.12 0z" fill="rgba(28, 83, 142, 0.4)" class="triangle-float1"></path><path d="M1135.81,344.555C1190.153,349.637,1249.166,331.174,1275.884,283.58C1302.213,236.68,1281.109,180.919,1253.623,134.688C1226.915,89.766,1188.056,49.285,1135.81,47.979C1081.651,46.625,1030.543,79.579,1007.332,128.531C986.62,172.213,1010.076,219.482,1034.788,261.033C1058.726,301.283,1089.183,340.195,1135.81,344.555" fill="rgba(28, 83, 142, 0.4)" class="triangle-float2"></path></g><defs><mask id="SvgjsMask1034"><rect width="1440" height="560" fill="#ffffff"></rect></mask><style>
            @keyframes float1 {
                0%{transform: translate(0, 0)}
                50%{transform: translate(-10px, 0)}
                100%{transform: translate(0, 0)}
            }

            .triangle-float1 {
                animation: float1 5s infinite;
            }

            @keyframes float2 {
                0%{transform: translate(0, 0)}
                50%{transform: translate(-5px, -5px)}
                100%{transform: translate(0, 0)}
            }

            .triangle-float2 {
                animation: float2 4s infinite;
            }

            @keyframes float3 {
                0%{transform: translate(0, 0)}
                50%{transform: translate(0, -10px)}
                100%{transform: translate(0, 0)}
            }

            .triangle-float3 {
                animation: float3 6s infinite;
            }
        </style></defs></svg>